<?xml version="1.0" encoding="utf-8"?>
<!-- Generator: Adobe Illustrator 24.1.0, SVG Export Plug-In . SVG Version: 6.00 Build 0)  -->
<svg version="1.1" id="Layer_1" xmlns="http://www.w3.org/2000/svg" xmlns:xlink="http://www.w3.org/1999/xlink" x="0px" y="0px"
	 viewBox="0 0 370.4 106.9" style="enable-background:new 0 0 370.4 106.9;" xml:space="preserve">
<g id="SvgjsG1061" transform="matrix(2.077514410018921,0,0,2.077514410018921,-0.6899091961260363,-10.554350913898567)">
	<path d="M63.6,24.8c-0.5-1.7-2.2-2.8-5.3-3.3l-0.4,2.2c2,0.4,3.3,1,3.5,1.7c0.3,1-1.2,2.9-4.9,5.2c-0.1-1.1-0.2-2.1-0.4-3.2
		C53.9,15.9,43.8,7.5,32,7.5c-1.5,0-3.1,0.1-4.6,0.4c-6.4,1.2-12,4.9-15.7,10.3c-3.7,5.4-5,11.9-3.8,18.4c0.4,2.3,1.2,4.6,2.3,6.6
		c-4.6-0.1-7.3-0.9-7.6-2.1c-0.2-0.7,0.7-2,2.3-3.3l-1.4-1.7c-2.5,2-3.5,3.9-3,5.6c0.7,2.6,4.8,3.7,10.5,3.7c0.2,0,0.4,0,0.6,0
		c4.4,6.7,12,11.1,20.5,11.1c1.5,0,3.1-0.1,4.6-0.4c11.3-2.2,19.3-11.8,19.9-22.9C61.8,30.1,64.2,27.3,63.6,24.8z M21.1,12.6
		c0.9,1.3,2.4,3.1,4.5,3.2c1.5,0.1,2.8-0.7,3.8-1.3c0.4-0.2,0.9-0.5,1.1-0.6c0,0,0.1,0.1,0.1,0.2l0.3,0.6c0.9,1.8,1,2,0.6,3.9
		c-0.3,1.6-1.3,5.8,2.6,7.1c0.4,0.1,0.5,0.3,0.6,0.3c0,0.2-0.9,1.5-4.6,2.8c-4.2,1.4-7.5,2.6-8.1,4.9c-0.3,1.2,0.2,2.4,1.5,3.8
		c0.2,0.2,0.5,0.6,0.4,0.8c-0.8,1.1-5.2,1.5-6.1,1c-0.2-0.3,0-1.9,0.2-2.9c0.3-2.1,0.7-4.6-0.2-6.8c-0.7-1.6-1.9-2.8-3-3.9
		c-1.7-1.7-2.6-2.7-2.2-4.4c0.3-0.6,0.6-1.1,1-1.6C15.6,16.6,18.1,14.3,21.1,12.6z M11,24.6c0.6,1,1.4,1.8,2.2,2.6
		c1,1,2,1.9,2.5,3.2c0.6,1.6,0.3,3.7,0.1,5.6c-0.3,2.2-0.6,4.3,1,5.2c0.6,0.3,1.6,0.5,2.8,0.5c2.3,0,5.2-0.6,6.3-2.1
		c0.4-0.5,1.1-1.9-0.6-3.7c-0.7-0.7-1-1.3-0.9-1.7c0.3-1.1,3.8-2.3,6.6-3.3c3.9-1.3,6.1-3.1,6.1-4.9c0-0.5-0.2-1.8-2.1-2.4
		c-1.2-0.4-1.8-1.3-1.1-4.5c0.6-2.6,0.2-3.3-0.8-5.4L32.7,13c-0.4-0.7-0.9-1.2-1.5-1.4c-1-0.3-2,0.3-2.9,0.9c-0.8,0.5-1.7,1-2.5,1
		c-1-0.1-2-1-2.6-1.9c1.5-0.6,3.1-1.1,4.7-1.4c1.4-0.3,2.8-0.4,4.2-0.4c6.6,0,12.7,3,16.8,7.7c-1.2,0.5-2.7,1.3-3.2,2.6
		c-0.3,0.7-0.4,1.7,0.6,3c2,2.7,1.8,3.5,0.8,5.4c-0.6,1.2-0.9,2.6-0.8,4.1l2.2-0.1c0-1.2,0.2-2.2,0.6-3c1.3-2.6,1.5-4.4-1.1-7.7
		c-0.4-0.5-0.3-0.8-0.3-0.8c0.2-0.6,1.4-1.2,2.5-1.5c1.7,2.5,3,5.4,3.6,8.5c0.3,1.4,0.4,2.7,0.4,4.1c-5.3,2.9-12.6,5.6-20.5,7.8
		c-8.5,2.3-15.6,3.3-21,3.5c-1.2-2.1-2.1-4.5-2.6-7C9.4,32.2,9.7,28.3,11,24.6z M36.2,53.9c-0.3,0.1-0.6,0.1-1,0.2
		c0.1-0.3,0.1-0.7,0.1-1.1c0-1.8-0.9-3.7-2.3-4.7c-1-0.8-2.1-1-2.9-1.1c-0.1,0-0.3-0.1-0.5-0.1c0-0.1,0-0.2,0.1-0.3
		c0.1-0.5,0.4-1,0.8-1.5l-1.7-1.4c-0.6,0.7-1,1.5-1.2,2.3c-0.2,0.6-0.3,1.5,0.1,2.2c0.5,0.8,1.3,0.9,2.1,1c0.6,0.1,1.3,0.2,1.9,0.7
		c0.8,0.6,1.4,1.8,1.4,3c0,0.5-0.1,1-0.3,1.3c-0.3,0-0.5,0-0.8,0c-7.2,0-13.7-3.5-17.8-8.9c5.9-0.4,13.1-1.7,20.1-3.5
		c7.6-2,14.5-4.6,19.8-7.3c-0.2,1.5-0.5,2.9-0.9,4.3c-1.2,0.1-2.2-0.4-3.1-1.5l-1.8,1.4c1.1,1.4,2.5,2.2,4,2.3
		c-0.9,1.9-2,3.8-3.4,5.4c-2.3-2.4-5.2-4.8-6.7-4.5c-0.5,0.1-1,0.3-1.5,0.5c-1.2,0.5-2.7,1-3.9,0.6L36,45.1c2,0.7,4-0.1,5.5-0.6
		c0.4-0.2,0.8-0.3,1.1-0.4c0.7,0.1,2.8,1.9,4.8,4C44.4,51,40.6,53,36.2,53.9z"/>
</g>
<g id="SvgjsG1062" transform="matrix(2.3918354511260986,0,0,2.3918354511260986,150.32571571575315,15.983844567718299)">
	<path d="M6.2,9.4c2.4,0,5.7,1.8,5,6.5H3.9c0.4,1.1,1.3,1.6,2.6,1.6c1.3,0,1.7-0.3,2.4-0.6l1.7,1.7c-0.9,0.9-2.2,1.6-4.3,1.6
		c-2.6,0-5.7-1.8-5.7-5.4C0.7,11.2,3.8,9.4,6.2,9.4z M6.2,12.1c-0.9,0-1.8,0.5-2.2,1.6h4.4C8.1,12.6,7.1,12.1,6.2,12.1z M20.5,9.6
		h3.2V20h-3.2v-1c-0.1,0.4-1.1,1.2-2.7,1.2c-2.4,0-5.1-1.7-5.1-5.4c0-3.6,2.7-5.4,5.1-5.4c1.6,0,2.5,0.9,2.7,1.1
		C20.5,10.6,20.5,9.6,20.5,9.6z M18.2,17.4c1.3,0,2.4-0.9,2.4-2.6c0-1.7-1.1-2.6-2.4-2.6c-1.4,0-2.5,0.9-2.5,2.6
		C15.7,16.5,16.9,17.4,18.2,17.4z M30.6,12.9c-0.3-0.7-0.7-1-1.2-1c-0.4,0-0.8,0.2-0.8,0.6c0,0.4,0.2,0.6,0.7,0.8l1.3,0.5
		c1.5,0.5,3,1.1,3,3.2c0,2.1-2.1,3.3-4.3,3.3c-1.9,0-3.8-1.1-4.2-3l2.5-0.8c0.3,0.6,0.7,1.2,1.7,1.2c0.7,0,1.1-0.4,1.1-0.8
		c0-0.2-0.2-0.5-0.7-0.7l-1.2-0.4c-2.1-0.8-3.1-1.8-3.1-3.3c0-1.9,1.8-3.1,3.8-3.1c2,0,3.4,1.1,4,2.8L30.6,12.9z M42.7,9.6h3.1
		l-6.4,14.2h-3.2l1.9-4.2L33.7,9.6h3.1l2.9,6.7L42.7,9.6z M64.9,9.6L60.3,20h-2.8L52.8,9.6H56l2.9,6.7l2.9-6.7
		C61.8,9.6,64.9,9.6,64.9,9.6z M69.6,5.9v2.7h-3.2V5.9C66.4,5.9,69.6,5.9,69.6,5.9z M69.6,9.6V20h-3.2V9.6H69.6z M76.6,12.9
		c-0.3-0.7-0.7-1-1.2-1c-0.4,0-0.8,0.2-0.8,0.6c0,0.4,0.2,0.6,0.7,0.8l1.3,0.5c1.5,0.5,3,1.1,3,3.2c0,2.1-2.1,3.3-4.3,3.3
		c-1.9,0-3.8-1.1-4.2-3l2.5-0.8c0.3,0.6,0.7,1.2,1.7,1.2c0.7,0,1.1-0.4,1.1-0.8c0-0.2-0.2-0.5-0.7-0.7l-1.2-0.4
		c-2.1-0.8-3.1-1.8-3.1-3.3c0-1.9,1.8-3.1,3.8-3.1c2,0,3.4,1.1,4,2.8L76.6,12.9z M88.9,9.6H92V20h-3.2v-1c-0.1,0.4-1.1,1.2-2.7,1.2
		c-2.4,0-5.1-1.7-5.1-5.4c0-3.6,2.7-5.4,5.1-5.4c1.6,0,2.5,0.9,2.7,1.1C88.9,10.6,88.9,9.6,88.9,9.6z M86.6,17.4
		c1.3,0,2.4-0.9,2.4-2.6c0-1.7-1.1-2.6-2.4-2.6c-1.4,0-2.5,0.9-2.5,2.6C84.1,16.5,85.3,17.4,86.6,17.4z"/>
</g>
</svg>
